#!OML:ASF F:\VICON\USERDATA\INSTALL\Justin_Nancy\Justin_Nancy.ASF
:FULLY-SPECIFIED
:DEGREES
168
root 10.8634 18.192 23.401 12.003 33.0846 6.24201
lowerback 6.8666 -1.27099 -5.43408
upperback -0.37668 -2.06225 1.79803
thorax -3.99037 -0.890317 5.14206
lowerneck -24.9442 -2.46434 -9.19532
upperneck 17.0739 -1.3764 5.65901
head 9.59088 -0.582261 3.28284
rclavicle -5.78463e-014 4.77083e-015
rhumerus -56.9177 13.8267 -92.5159
rradius 115.367
rwrist -16.2162
rhand -11.0978 22.8342
rfingers 7.12502
rthumb 14.9263 -6.60803
lclavicle -5.78463e-014 4.77083e-015
lhumerus -36.9621 -13.6803 86.8092
lradius 114.711
lwrist 22.2071
lhand -16.6487 8.14332
lfingers 7.12502
lthumb 9.57431 37.9058
rfemur -31.5161 1.70812 18.4757
rtibia 16.1232
rfoot 3.82678 -0.0995578
rtoes -9.4194
lfemur 10.6104 -5.06221 -31.3585
ltibia 27.6975
lfoot 21.4139 -2.034
ltoes -1.13352
169
root 11.0828 18.1704 23.7012 12.1337 32.9901 6.70072
lowerback 6.76872 -1.31051 -5.68661
upperback -0.215817 -2.12828 1.75698
thorax -3.75155 -0.930718 5.24037
lowerneck -25.046 -2.40483 -9.6334
upperneck 16.7826 -1.16262 5.84481
head 9.49174 -0.48459 3.44792
rclavicle 1.43125e-014 -1.03368e-014
rhumerus -56.3378 13.867 -92.0983
rradius 115.581
rwrist -16.5561
rhand -11.1821 22.6915
rfingers 7.12502
rthumb 14.8451 -6.75674
lclavicle 1.43125e-014 -1.03368e-014
lhumerus -36.7327 -13.7022 87.1158
lradius 114.337
lwrist 21.3964
lhand -16.4775 8.00572
lfingers 7.12502
lthumb 9.73947 37.7605
rfemur -31.1928 1.99223 17.9857
rtibia 15.4598
rfoot 4.17026 0.274228
rtoes -12.9782
lfemur 10.5455 -5.25028 -31.782
ltibia 29.533
lfoot 20.1204 -1.85503
ltoes -2.69187
170
root 11.3039 18.1368 24.0059 12.2795 33.0631 7.30621
lowerback 6.79832 -1.40114 -5.94153
upperback -0.143864 -2.27531 1.60574
thorax -3.6704 -1.00495 5.23814
lowerneck -24.5459 -2.32889 -10.2752
upperneck 16.0341 -0.96446 6.28229
head 9.13277 -0.375643 3.71928
rclavicle 1.94809e-014 5.56597e-015
rhumerus -55.9699 13.8767 -91.9035
rradius 115.691
rwrist -16.7392
rhand -11.5313 22.6668
rfingers 7.12502
rthumb 14.5086 -6.8059
lclavicle 1.94809e-014 5.56597e-015
lhumerus -36.7854 -13.7862 87.2296
lradius 114.01
lwrist 20.567
lhand -16.453 7.76398
lfingers 7.12502
lthumb 9.7631 37.5177
rfemur -31.0431 2.40173 17.2042
rtibia 15.6074
rfoot 5.08332 -1.13023
rtoes -6.37944
lfemur 10.407 -5.53593 -32.1816
ltibia 31.7358
lfoot 19.0496 -1.30718
ltoes -1.78146
171
root 11.5239 18.0885 24.3085 12.1831 33.097 7.68126
lowerback 7.08917 -1.4002 -5.93577
upperback -0.145932 -2.29711 1.44606
thorax -3.84 -1.01067 5.08071
lowerneck -24.349 -2.40861 -10.6185
upperneck 15.8525 -1.00764 6.44963
head 9.04326 -0.397473 3.82304
rclavicle -1.09332e-014 7.95139e-016
rhumerus -55.7724 13.7391 -91.8435
rradius 115.833
rwrist -16.8465
rhand -12.1393 22.7081
rfingers 7.12502
rthumb 13.9228 -6.80578
lclavicle -1.09332e-014 7.95139e-016
lhumerus -37.0492 -14.0524 87.3314
lradius 113.656
lwrist 19.6825
lhand -16.6424 7.65937
lfingers 7.12502
lthumb 9.58038 37.4215
rfemur -30.8635 2.76817 16.7312
rtibia 16.3449
rfoot 5.90807 -2.82241
rtoes 2.55852
lfemur 10.1955 -5.81752 -32.4427
ltibia 34.2404
lfoot 18.5269 -0.720359
ltoes -0.12905
172
root 11.7328 18.0247 24.5986 11.7371 32.9575 7.53174
lowerback 7.59428 -1.31621 -5.65184
upperback -0.148849 -2.18946 1.45677
thorax -4.15091 -0.951082 4.94102
lowerneck -24.7341 -2.64569 -10.6755
upperneck 16.3518 -1.26884 6.39927
head 9.30806 -0.533503 3.78924
rclavicle -9.28324e-014 2.70347e-014
rhumerus -55.4585 13.6523 -91.6495
rradius 115.965
rwrist -17.2698
rhand -12.3707 22.7844
rfingers 7.12502
rthumb 13.6997 -6.74464
lclavicle -9.28324e-014 2.70347e-014
lhumerus -37.4201 -14.1555 87.4926
lradius 113.331
lwrist 18.6259
lhand -16.759 7.54706
lfingers 7.12502
lthumb 9.46792 37.3144
rfemur -30.6091 3.09636 16.9325
rtibia 17.4005
rfoot 6.46239 -2.4489
rtoes 1.8995
lfemur 9.7571 -5.91949 -32.2646
ltibia 37.1232
lfoot 18.0139 -0.338174
ltoes 0.883862
173
root 11.9369 17.9466 24.8869 11.1509 32.7129 7.22592
lowerback 8.10513 -1.17984 -5.3322
upperback -0.10976 -2.0033 1.49261
thorax -4.42985 -0.855959 4.79661
lowerneck -25.1612 -2.90075 -10.6659
upperneck 16.8873 -1.59992 6.45951
head 9.60173 -0.684063 3.77339
rclavicle 7.49418e-014 2.06736e-014
rhumerus -55.0823 13.5037 -91.4426
rradius 116.109
rwrist -17.7233
rhand -12.646 22.6965
rfingers 7.12502
rthumb 13.4344 -6.85023
lclavicle 7.49418e-014 2.06736e-014
lhumerus -37.843 -14.2252 87.5352
lradius 113.138
lwrist 17.5991
lhand -16.9779 7.41786
lfingers 7.12502
lthumb 9.25663 37.1947
rfemur -30.1969 3.26411 17.3577
rtibia 18.4912
rfoot 6.49139 0.956306
rtoes -8.17517
lfemur 9.10493 -5.83285 -31.8592
ltibia 40.4857
lfoot 17.0016 -0.234698
ltoes 2.06547
174
root 12.1292 17.8422 25.1757 10.4848 32.214 6.72704
lowerback 8.42581 -0.943595 -5.09264
upperback 0.0417511 -1.67337 1.59363
thorax -4.49464 -0.69739 4.73785
lowerneck -25.2454 -3.00221 -10.6837
upperneck 16.9403 -1.74773 6.56019
head 9.65016 -0.741541 3.79165
rclavicle 3.61788e-014 -1.43125e-014
rhumerus -54.4764 13.415 -91.2158
rradius 116.169
rwrist -17.991
rhand -12.9601 22.5181
rfingers 7.12502
rthumb 13.1316 -7.04847
lclavicle 3.61788e-014 -1.43125e-014
lhumerus -38.1262 -14.1954 87.4946
lradius 112.997
lwrist 16.4876
lhand -16.8508 7.22657
lfingers 7.12502
lthumb 9.37926 36.9979
rfemur -30.2763 3.76836 17.9304
rtibia 20.7216
rfoot 6.1596 1.59224
rtoes -4.29363
lfemur 8.49989 -5.42605 -31.1957
ltibia 43.4682
lfoot 16.5496 -0.0760014
ltoes 3.88759
175
root 12.299 17.7259 25.4395 9.78549 31.2639 5.82969
lowerback 8.90038 -0.558879 -4.76832
upperback 0.1348 -1.13697 1.83036
thorax -4.72848 -0.430442 4.75145
lowerneck -25.0913 -3.01874 -10.7592
upperneck 16.6153 -1.7511 6.55596
head 9.5098 -0.744946 3.79421
rclavicle 9.74045e-014 -2.38542e-014
rhumerus -53.6949 13.5548 -90.9799
rradius 116.178
rwrist -18.4139
rhand -13.2589 22.4088
rfingers 7.12502
rthumb 12.8436 -7.17601
lclavicle 9.74045e-014 -2.38542e-014
lhumerus -38.2681 -13.9692 87.4735
lradius 112.692
lwrist 15.3089
lhand -17.2145 7.15327
lfingers 7.12502
lthumb 9.02838 36.9401
rfemur -30.7644 5.09383 18.7456
rtibia 23.3778
rfoot 3.96238 2.86069
rtoes 1.56675
lfemur 7.23005 -4.43182 -30.1403
ltibia 46.6083
lfoot 16.8454 0.0878884
ltoes 3.80325
176
root 12.5852 17.6128 25.8163 9.4874 32.7186 7.82425
lowerback 8.80408 -1.08507 -5.65024
upperback 0.734424 -1.92921 1.33858
thorax -3.94129 -0.848282 4.81177
lowerneck -24.6682 -2.99937 -10.7259
upperneck 16.2726 -1.7614 6.4902
head 9.31715 -0.754941 3.7546
rclavicle -5.64548e-014 7.15625e-015
rhumerus -53.2165 13.6892 -90.9323
rradius 116.193
rwrist -18.721
rhand -13.5562 22.1056
rfingers 7.12502
rthumb 12.557 -7.49707
lclavicle -5.64548e-014 7.15625e-015
lhumerus -38.538 -13.6825 87.4788
lradius 112.15
lwrist 14.3451
lhand -17.3911 7.17253
lfingers 7.12502
lthumb 8.85797 36.9666
rfemur -28.9861 2.39626 17.5286
rtibia 26.6049
rfoot 0.0865475 4.00491
rtoes 1.63132
lfemur 8.54081 -5.41034 -31.6162
ltibia 49.0517
lfoot 16.9175 0.314798
ltoes 3.31551
177
root 12.7852 17.4952 26.1133 9.12174 32.6062 8.0685
lowerback 9.36533 -0.96822 -5.82397
upperback 0.718684 -1.8296 1.2164
thorax -4.28295 -0.783814 4.78989
lowerneck -24.2501 -2.96206 -10.6258
upperneck 16.0845 -1.77885 6.44681
head 9.18046 -0.764049 3.71474
rclavicle 2.60408e-014 -5.56597e-015
rhumerus -52.7504 13.7303 -90.9552
rradius 116.093
rwrist -18.9052
rhand -13.8684 21.8101
rfingers 7.12502
rthumb 12.256 -7.8108
lclavicle 2.60408e-014 -5.56597e-015
lhumerus -39.234 -13.494 87.404
lradius 111.791
lwrist 13.7789
lhand -17.3449 6.76827
lfingers 7.12502
lthumb 8.90249 36.5605
rfemur -28.8594 2.53883 17.5309
rtibia 29.9752
rfoot -2.69581 3.64789
rtoes 0.842453
lfemur 8.00404 -5.12316 -31.3473
ltibia 51.9306
lfoot 16.7887 0.708454
ltoes 3.39163
